<svg xmlns="http://www.w3.org/2000/svg" xmlns:xlink="http://www.w3.org/1999/xlink" width="300" zoomAndPan="magnify" viewBox="0 0 224.87999 74.999997" height="100" preserveAspectRatio="xMidYMid meet" version="1.0"><defs><g/><clipPath id="78e74969f9"><path d="M 217.382812 48.890625 L 221.132812 48.890625 L 221.132812 52.636719 L 217.382812 52.636719 Z M 217.382812 48.890625 " clip-rule="nonzero"/></clipPath><clipPath id="393708dce5"><path d="M 0.382812 0.890625 L 4.132812 0.890625 L 4.132812 4.636719 L 0.382812 4.636719 Z M 0.382812 0.890625 " clip-rule="nonzero"/></clipPath><clipPath id="43fcdd35b2"><rect x="0" width="5" y="0" height="5"/></clipPath></defs><g fill="#ffffff" fill-opacity="1"><g transform="translate(1.10471, 52.415152)"><g><path d="M 38.109375 -10.28125 L 38.109375 -23.796875 L 27.25 -2.015625 C 27.1875 -1.804688 27.03125 -1.703125 26.78125 -1.703125 L 20.234375 -1.703125 C 19.941406 -1.703125 19.765625 -1.804688 19.703125 -2.015625 L 8.140625 -24.375 L 8.140625 -0.484375 C 8.140625 -0.160156 7.945312 0 7.5625 0 L 0.53125 0 C 0.175781 0 0 -0.160156 0 -0.484375 L 0 -42.109375 C 0 -42.429688 0.175781 -42.59375 0.53125 -42.59375 L 7.671875 -42.59375 C 7.953125 -42.59375 8.128906 -42.484375 8.203125 -42.265625 L 23.46875 -11.078125 L 38.015625 -42.265625 C 38.148438 -42.484375 38.34375 -42.59375 38.59375 -42.59375 L 45.625 -42.59375 C 46.007812 -42.59375 46.203125 -42.429688 46.203125 -42.109375 L 46.203125 -10.28125 Z M 38.109375 -10.28125 "/></g></g></g><g fill="#ffffff" fill-opacity="1"><g transform="translate(49.653464, 52.415152)"><g><path d="M 33.4375 -0.640625 C 33.5 -0.492188 33.476562 -0.347656 33.375 -0.203125 C 33.269531 -0.0664062 33.128906 0 32.953125 0 L 25.609375 0 C 25.359375 0 25.195312 -0.101562 25.125 -0.3125 L 16.71875 -24.0625 L 8.40625 -0.3125 C 8.375 -0.101562 8.195312 0 7.875 0 L 0.578125 0 C 0.335938 0 0.171875 -0.0664062 0.078125 -0.203125 C -0.00390625 -0.347656 -0.015625 -0.492188 0.046875 -0.640625 L 16.1875 -42.265625 C 16.257812 -42.484375 16.4375 -42.59375 16.71875 -42.59375 C 17 -42.59375 17.175781 -42.484375 17.25 -42.265625 Z M 33.4375 -0.640625 "/></g></g></g><g fill="#ffffff" fill-opacity="1"><g transform="translate(84.787438, 52.415152)"><g><path d="M 23 -7.9375 C 23.382812 -7.9375 23.578125 -7.757812 23.578125 -7.40625 L 23.578125 -0.484375 C 23.578125 -0.160156 23.382812 0 23 0 L 0.578125 0 C 0.191406 0 0 -0.160156 0 -0.484375 L 0 -7.9375 Z M 8.140625 -16.078125 L 0 -16.078125 L 0 -42.109375 C 0 -42.429688 0.191406 -42.59375 0.578125 -42.59375 L 7.609375 -42.59375 C 7.960938 -42.59375 8.140625 -42.429688 8.140625 -42.109375 Z M 8.140625 -16.078125 "/></g></g></g><g fill="#00bf63" fill-opacity="1"><g transform="translate(109.597588, 52.415152)"><g><path d="M 17.359375 -7.296875 C 17.742188 -7.296875 17.9375 -7.132812 17.9375 -6.8125 L 17.9375 -0.484375 C 17.9375 -0.160156 17.742188 0 17.359375 0 L 0.578125 0 C 0.191406 0 0 -0.160156 0 -0.484375 L 0 -6.8125 C 0 -7.132812 0.191406 -7.296875 0.578125 -7.296875 L 4.953125 -7.296875 L 4.953125 -42.59375 L 13.09375 -42.59375 L 13.09375 -7.296875 Z M 17.359375 -7.296875 "/></g></g></g><g fill="#ffffff" fill-opacity="1"><g transform="translate(128.442999, 52.415152)"><g><path d="M 33.96875 -0.796875 C 34.144531 -0.585938 34.175781 -0.398438 34.0625 -0.234375 C 33.957031 -0.078125 33.765625 0 33.484375 0 L 24.328125 0 C 24.117188 0 23.957031 -0.0507812 23.84375 -0.15625 L 11.453125 -15.484375 C 11.265625 -15.304688 10.859375 -14.875 10.234375 -14.1875 C 9.617188 -13.5 8.875 -12.664062 8 -11.6875 C 7.132812 -10.707031 6.238281 -9.691406 5.3125 -8.640625 C 4.394531 -7.597656 3.523438 -6.613281 2.703125 -5.6875 C 1.890625 -4.769531 1.234375 -4.023438 0.734375 -3.453125 C 0.242188 -2.890625 0 -2.609375 0 -2.609375 L 0 -42.109375 C 0 -42.429688 0.191406 -42.59375 0.578125 -42.59375 L 7.609375 -42.59375 C 7.960938 -42.59375 8.140625 -42.429688 8.140625 -42.109375 L 8.140625 -22.734375 L 24.171875 -42.421875 C 24.273438 -42.535156 24.429688 -42.59375 24.640625 -42.59375 L 33.328125 -42.59375 C 33.609375 -42.59375 33.800781 -42.503906 33.90625 -42.328125 C 34.007812 -42.148438 33.972656 -41.96875 33.796875 -41.78125 L 16.875 -20.921875 Z M 33.96875 -0.796875 "/></g></g></g><g fill="#00bf63" fill-opacity="1"><g transform="translate(164.271537, 52.415152)"><g><path d="M 17.359375 -7.296875 C 17.742188 -7.296875 17.9375 -7.132812 17.9375 -6.8125 L 17.9375 -0.484375 C 17.9375 -0.160156 17.742188 0 17.359375 0 L 0.578125 0 C 0.191406 0 0 -0.160156 0 -0.484375 L 0 -6.8125 C 0 -7.132812 0.191406 -7.296875 0.578125 -7.296875 L 4.953125 -7.296875 L 4.953125 -42.59375 L 13.09375 -42.59375 L 13.09375 -7.296875 Z M 17.359375 -7.296875 "/></g></g></g><g fill="#ffffff" fill-opacity="1"><g transform="translate(183.116944, 52.415152)"><g><path d="M 33.4375 -0.640625 C 33.5 -0.492188 33.476562 -0.347656 33.375 -0.203125 C 33.269531 -0.0664062 33.128906 0 32.953125 0 L 25.609375 0 C 25.359375 0 25.195312 -0.101562 25.125 -0.3125 L 16.71875 -24.0625 L 8.40625 -0.3125 C 8.375 -0.101562 8.195312 0 7.875 0 L 0.578125 0 C 0.335938 0 0.171875 -0.0664062 0.078125 -0.203125 C -0.00390625 -0.347656 -0.015625 -0.492188 0.046875 -0.640625 L 16.1875 -42.265625 C 16.257812 -42.484375 16.4375 -42.59375 16.71875 -42.59375 C 17 -42.59375 17.175781 -42.484375 17.25 -42.265625 Z M 33.4375 -0.640625 "/></g></g></g><g clip-path="url(#78e74969f9)"><g transform="matrix(1, 0, 0, 1, 217, 48)"><g clip-path="url(#43fcdd35b2)"><g clip-path="url(#393708dce5)"><path fill="#00bf63" d="M 0.382812 0.890625 L 4.132812 0.890625 L 4.132812 4.636719 L 0.382812 4.636719 Z M 0.382812 0.890625 " fill-opacity="1" fill-rule="nonzero"/></g></g></g></g></svg>