<svg xmlns="http://www.w3.org/2000/svg" xmlns:xlink="http://www.w3.org/1999/xlink" width="300" zoomAndPan="magnify" viewBox="0 0 224.87999 74.999997" height="100" preserveAspectRatio="xMidYMid meet" version="1.0"><defs><g/><clipPath id="6bc3607b52"><path d="M 217.382812 51.140625 L 221.132812 51.140625 L 221.132812 54.886719 L 217.382812 54.886719 Z M 217.382812 51.140625 " clip-rule="nonzero"/></clipPath><clipPath id="e616165137"><path d="M 0.382812 0.140625 L 4.132812 0.140625 L 4.132812 3.886719 L 0.382812 3.886719 Z M 0.382812 0.140625 " clip-rule="nonzero"/></clipPath><clipPath id="efc341d2ef"><rect x="0" width="5" y="0" height="4"/></clipPath></defs><g fill="#000000" fill-opacity="0.4"><g transform="translate(1.35865, 54.516983)"><g><path d="M 37.84375 -10.203125 L 37.84375 -23.625 L 27.0625 -2.015625 C 26.988281 -1.796875 26.832031 -1.6875 26.59375 -1.6875 L 20.09375 -1.6875 C 19.800781 -1.6875 19.625 -1.796875 19.5625 -2.015625 L 8.09375 -24.203125 L 8.09375 -0.46875 C 8.09375 -0.15625 7.894531 0 7.5 0 L 0.53125 0 C 0.175781 0 0 -0.15625 0 -0.46875 L 0 -41.8125 C 0 -42.125 0.175781 -42.28125 0.53125 -42.28125 L 7.609375 -42.28125 C 7.890625 -42.28125 8.066406 -42.175781 8.140625 -41.96875 L 23.3125 -11 L 37.734375 -41.96875 C 37.878906 -42.175781 38.078125 -42.28125 38.328125 -42.28125 L 45.296875 -42.28125 C 45.679688 -42.28125 45.875 -42.125 45.875 -41.8125 L 45.875 -10.203125 Z M 37.84375 -10.203125 "/></g></g></g><g fill="#000000" fill-opacity="0.4"><g transform="translate(49.565614, 54.516983)"><g><path d="M 33.203125 -0.640625 C 33.265625 -0.492188 33.242188 -0.347656 33.140625 -0.203125 C 33.035156 -0.0664062 32.894531 0 32.71875 0 L 25.421875 0 C 25.179688 0 25.023438 -0.101562 24.953125 -0.3125 L 16.59375 -23.890625 L 8.359375 -0.3125 C 8.316406 -0.101562 8.140625 0 7.828125 0 L 0.578125 0 C 0.335938 0 0.171875 -0.0664062 0.078125 -0.203125 C -0.00390625 -0.347656 -0.015625 -0.492188 0.046875 -0.640625 L 16.0625 -41.96875 C 16.132812 -42.175781 16.3125 -42.28125 16.59375 -42.28125 C 16.875 -42.28125 17.050781 -42.175781 17.125 -41.96875 Z M 33.203125 -0.640625 "/></g></g></g><g fill="#000000" fill-opacity="0.4"><g transform="translate(84.452231, 54.516983)"><g><path d="M 22.828125 -7.875 C 23.222656 -7.875 23.421875 -7.695312 23.421875 -7.34375 L 23.421875 -0.46875 C 23.421875 -0.15625 23.222656 0 22.828125 0 L 0.578125 0 C 0.191406 0 0 -0.15625 0 -0.46875 L 0 -7.875 Z M 8.09375 -15.96875 L 0 -15.96875 L 0 -41.8125 C 0 -42.125 0.191406 -42.28125 0.578125 -42.28125 L 7.5625 -42.28125 C 7.914062 -42.28125 8.09375 -42.125 8.09375 -41.8125 Z M 8.09375 -15.96875 "/></g></g></g><g fill="#000000" fill-opacity="0.4"><g transform="translate(109.090216, 54.516983)"><g><path d="M 17.234375 -7.234375 C 17.617188 -7.234375 17.8125 -7.078125 17.8125 -6.765625 L 17.8125 -0.46875 C 17.8125 -0.15625 17.617188 0 17.234375 0 L 0.578125 0 C 0.191406 0 0 -0.15625 0 -0.46875 L 0 -6.765625 C 0 -7.078125 0.191406 -7.234375 0.578125 -7.234375 L 4.921875 -7.234375 L 4.921875 -42.28125 L 13 -42.28125 L 13 -7.234375 Z M 17.234375 -7.234375 "/></g></g></g><g fill="#000000" fill-opacity="0.4"><g transform="translate(127.806789, 54.516983)"><g><path d="M 33.71875 -0.796875 C 33.894531 -0.578125 33.929688 -0.390625 33.828125 -0.234375 C 33.722656 -0.078125 33.53125 0 33.25 0 L 24.15625 0 C 23.945312 0 23.789062 -0.0507812 23.6875 -0.15625 L 11.359375 -15.375 C 11.179688 -15.207031 10.785156 -14.78125 10.171875 -14.09375 C 9.554688 -13.40625 8.816406 -12.578125 7.953125 -11.609375 C 7.085938 -10.640625 6.195312 -9.632812 5.28125 -8.59375 C 4.363281 -7.550781 3.5 -6.570312 2.6875 -5.65625 C 1.882812 -4.738281 1.234375 -4 0.734375 -3.4375 C 0.242188 -2.875 0 -2.59375 0 -2.59375 L 0 -41.8125 C 0 -42.125 0.191406 -42.28125 0.578125 -42.28125 L 7.5625 -42.28125 C 7.914062 -42.28125 8.09375 -42.125 8.09375 -41.8125 L 8.09375 -22.578125 L 24 -42.125 C 24.101562 -42.226562 24.257812 -42.28125 24.46875 -42.28125 L 33.09375 -42.28125 C 33.375 -42.28125 33.566406 -42.191406 33.671875 -42.015625 C 33.773438 -41.847656 33.738281 -41.675781 33.5625 -41.5 L 16.75 -20.78125 Z M 33.71875 -0.796875 "/></g></g></g><g fill="#000000" fill-opacity="0.4"><g transform="translate(163.389361, 54.516983)"><g><path d="M 17.234375 -7.234375 C 17.617188 -7.234375 17.8125 -7.078125 17.8125 -6.765625 L 17.8125 -0.46875 C 17.8125 -0.15625 17.617188 0 17.234375 0 L 0.578125 0 C 0.191406 0 0 -0.15625 0 -0.46875 L 0 -6.765625 C 0 -7.078125 0.191406 -7.234375 0.578125 -7.234375 L 4.921875 -7.234375 L 4.921875 -42.28125 L 13 -42.28125 L 13 -7.234375 Z M 17.234375 -7.234375 "/></g></g></g><g fill="#000000" fill-opacity="0.4"><g transform="translate(182.105934, 54.516983)"><g><path d="M 33.203125 -0.640625 C 33.265625 -0.492188 33.242188 -0.347656 33.140625 -0.203125 C 33.035156 -0.0664062 32.894531 0 32.71875 0 L 25.421875 0 C 25.179688 0 25.023438 -0.101562 24.953125 -0.3125 L 16.59375 -23.890625 L 8.359375 -0.3125 C 8.316406 -0.101562 8.140625 0 7.828125 0 L 0.578125 0 C 0.335938 0 0.171875 -0.0664062 0.078125 -0.203125 C -0.00390625 -0.347656 -0.015625 -0.492188 0.046875 -0.640625 L 16.0625 -41.96875 C 16.132812 -42.175781 16.3125 -42.28125 16.59375 -42.28125 C 16.875 -42.28125 17.050781 -42.175781 17.125 -41.96875 Z M 33.203125 -0.640625 "/></g></g></g><g fill="#000000" fill-opacity="1"><g transform="translate(1.35865, 54.516983)"><g><path d="M 37.84375 -10.203125 L 37.84375 -23.625 L 27.0625 -2.015625 C 26.988281 -1.796875 26.832031 -1.6875 26.59375 -1.6875 L 20.09375 -1.6875 C 19.800781 -1.6875 19.625 -1.796875 19.5625 -2.015625 L 8.09375 -24.203125 L 8.09375 -0.46875 C 8.09375 -0.15625 7.894531 0 7.5 0 L 0.53125 0 C 0.175781 0 0 -0.15625 0 -0.46875 L 0 -41.8125 C 0 -42.125 0.175781 -42.28125 0.53125 -42.28125 L 7.609375 -42.28125 C 7.890625 -42.28125 8.066406 -42.175781 8.140625 -41.96875 L 23.3125 -11 L 37.734375 -41.96875 C 37.878906 -42.175781 38.078125 -42.28125 38.328125 -42.28125 L 45.296875 -42.28125 C 45.679688 -42.28125 45.875 -42.125 45.875 -41.8125 L 45.875 -10.203125 Z M 37.84375 -10.203125 "/></g></g></g><g fill="#000000" fill-opacity="1"><g transform="translate(49.565614, 54.516983)"><g><path d="M 33.203125 -0.640625 C 33.265625 -0.492188 33.242188 -0.347656 33.140625 -0.203125 C 33.035156 -0.0664062 32.894531 0 32.71875 0 L 25.421875 0 C 25.179688 0 25.023438 -0.101562 24.953125 -0.3125 L 16.59375 -23.890625 L 8.359375 -0.3125 C 8.316406 -0.101562 8.140625 0 7.828125 0 L 0.578125 0 C 0.335938 0 0.171875 -0.0664062 0.078125 -0.203125 C -0.00390625 -0.347656 -0.015625 -0.492188 0.046875 -0.640625 L 16.0625 -41.96875 C 16.132812 -42.175781 16.3125 -42.28125 16.59375 -42.28125 C 16.875 -42.28125 17.050781 -42.175781 17.125 -41.96875 Z M 33.203125 -0.640625 "/></g></g></g><g fill="#000000" fill-opacity="1"><g transform="translate(84.452231, 54.516983)"><g><path d="M 22.828125 -7.875 C 23.222656 -7.875 23.421875 -7.695312 23.421875 -7.34375 L 23.421875 -0.46875 C 23.421875 -0.15625 23.222656 0 22.828125 0 L 0.578125 0 C 0.191406 0 0 -0.15625 0 -0.46875 L 0 -7.875 Z M 8.09375 -15.96875 L 0 -15.96875 L 0 -41.8125 C 0 -42.125 0.191406 -42.28125 0.578125 -42.28125 L 7.5625 -42.28125 C 7.914062 -42.28125 8.09375 -42.125 8.09375 -41.8125 Z M 8.09375 -15.96875 "/></g></g></g><g fill="#00bf63" fill-opacity="1"><g transform="translate(109.090216, 54.516983)"><g><path d="M 17.234375 -7.234375 C 17.617188 -7.234375 17.8125 -7.078125 17.8125 -6.765625 L 17.8125 -0.46875 C 17.8125 -0.15625 17.617188 0 17.234375 0 L 0.578125 0 C 0.191406 0 0 -0.15625 0 -0.46875 L 0 -6.765625 C 0 -7.078125 0.191406 -7.234375 0.578125 -7.234375 L 4.921875 -7.234375 L 4.921875 -42.28125 L 13 -42.28125 L 13 -7.234375 Z M 17.234375 -7.234375 "/></g></g></g><g fill="#000000" fill-opacity="1"><g transform="translate(127.806789, 54.516983)"><g><path d="M 33.71875 -0.796875 C 33.894531 -0.578125 33.929688 -0.390625 33.828125 -0.234375 C 33.722656 -0.078125 33.53125 0 33.25 0 L 24.15625 0 C 23.945312 0 23.789062 -0.0507812 23.6875 -0.15625 L 11.359375 -15.375 C 11.179688 -15.207031 10.785156 -14.78125 10.171875 -14.09375 C 9.554688 -13.40625 8.816406 -12.578125 7.953125 -11.609375 C 7.085938 -10.640625 6.195312 -9.632812 5.28125 -8.59375 C 4.363281 -7.550781 3.5 -6.570312 2.6875 -5.65625 C 1.882812 -4.738281 1.234375 -4 0.734375 -3.4375 C 0.242188 -2.875 0 -2.59375 0 -2.59375 L 0 -41.8125 C 0 -42.125 0.191406 -42.28125 0.578125 -42.28125 L 7.5625 -42.28125 C 7.914062 -42.28125 8.09375 -42.125 8.09375 -41.8125 L 8.09375 -22.578125 L 24 -42.125 C 24.101562 -42.226562 24.257812 -42.28125 24.46875 -42.28125 L 33.09375 -42.28125 C 33.375 -42.28125 33.566406 -42.191406 33.671875 -42.015625 C 33.773438 -41.847656 33.738281 -41.675781 33.5625 -41.5 L 16.75 -20.78125 Z M 33.71875 -0.796875 "/></g></g></g><g fill="#00bf63" fill-opacity="1"><g transform="translate(163.389361, 54.516983)"><g><path d="M 17.234375 -7.234375 C 17.617188 -7.234375 17.8125 -7.078125 17.8125 -6.765625 L 17.8125 -0.46875 C 17.8125 -0.15625 17.617188 0 17.234375 0 L 0.578125 0 C 0.191406 0 0 -0.15625 0 -0.46875 L 0 -6.765625 C 0 -7.078125 0.191406 -7.234375 0.578125 -7.234375 L 4.921875 -7.234375 L 4.921875 -42.28125 L 13 -42.28125 L 13 -7.234375 Z M 17.234375 -7.234375 "/></g></g></g><g fill="#000000" fill-opacity="1"><g transform="translate(182.105934, 54.516983)"><g><path d="M 33.203125 -0.640625 C 33.265625 -0.492188 33.242188 -0.347656 33.140625 -0.203125 C 33.035156 -0.0664062 32.894531 0 32.71875 0 L 25.421875 0 C 25.179688 0 25.023438 -0.101562 24.953125 -0.3125 L 16.59375 -23.890625 L 8.359375 -0.3125 C 8.316406 -0.101562 8.140625 0 7.828125 0 L 0.578125 0 C 0.335938 0 0.171875 -0.0664062 0.078125 -0.203125 C -0.00390625 -0.347656 -0.015625 -0.492188 0.046875 -0.640625 L 16.0625 -41.96875 C 16.132812 -42.175781 16.3125 -42.28125 16.59375 -42.28125 C 16.875 -42.28125 17.050781 -42.175781 17.125 -41.96875 Z M 33.203125 -0.640625 "/></g></g></g><g clip-path="url(#6bc3607b52)"><g transform="matrix(1, 0, 0, 1, 217, 51)"><g clip-path="url(#efc341d2ef)"><g clip-path="url(#e616165137)"><path fill="#00bf63" d="M 0.382812 0.140625 L 4.132812 0.140625 L 4.132812 3.886719 L 0.382812 3.886719 Z M 0.382812 0.140625 " fill-opacity="1" fill-rule="nonzero"/></g></g></g></g></svg>