<svg width="640" height="420" viewBox="0 0 640 420" fill="none" xmlns="http://www.w3.org/2000/svg">
<rect width="640" height="420" rx="32" fill="#2A1605"/>
<rect x="28" y="28" width="584" height="364" rx="24" fill="url(#paint0_linear)"/>
<rect x="78" y="96" width="210" height="230" rx="24" fill="#FFF7ED"/>
<rect x="310" y="96" width="252" height="230" rx="24" fill="#FFFBEB"/>
<rect x="110" y="126" width="146" height="100" rx="16" fill="#FDBA74"/>
<path d="M142 176H224" stroke="#7C2D12" stroke-width="10" stroke-linecap="round"/>
<path d="M154 156L183 132L212 156" stroke="#7C2D12" stroke-width="10" stroke-linecap="round" stroke-linejoin="round"/>
<rect x="118" y="250" width="132" height="14" rx="7" fill="#7C2D12"/>
<rect x="118" y="278" width="104" height="10" rx="5" fill="#9A3412"/>
<rect x="344" y="126" width="116" height="14" rx="7" fill="#7C2D12"/>
<rect x="344" y="154" width="160" height="10" rx="5" fill="#B45309"/>
<rect x="344" y="194" width="184" height="104" rx="18" fill="#FFF" fill-opacity="0.86"/>
<rect x="366" y="218" width="140" height="16" rx="8" fill="#FDBA74"/>
<rect x="366" y="248" width="86" height="12" rx="6" fill="#7C2D12"/>
<rect x="366" y="272" width="122" height="12" rx="6" fill="#9A3412" fill-opacity="0.5"/>
<circle cx="528" cy="146" r="22" fill="#F59E0B"/>
<path d="M520 146H536" stroke="#FFF7ED" stroke-width="8" stroke-linecap="round"/>
<path d="M528 138V154" stroke="#FFF7ED" stroke-width="8" stroke-linecap="round"/>
<text x="70" y="378" fill="#FED7AA" font-family="Arial, sans-serif" font-size="28" font-weight="700">Commerce Suite</text>
<defs>
<linearGradient id="paint0_linear" x1="54" y1="40" x2="592" y2="372" gradientUnits="userSpaceOnUse">
<stop stop-color="#7C2D12"/>
<stop offset="1" stop-color="#B45309"/>
</linearGradient>
</defs>
</svg>
