<svg width="640" height="420" viewBox="0 0 640 420" fill="none" xmlns="http://www.w3.org/2000/svg">
<rect width="640" height="420" rx="32" fill="#06281F"/>
<rect x="28" y="28" width="584" height="364" rx="24" fill="url(#paint0_linear)"/>
<rect x="72" y="88" width="496" height="250" rx="24" fill="#F8FAFC"/>
<rect x="96" y="116" width="180" height="182" rx="20" fill="#0F766E" fill-opacity="0.12"/>
<rect x="300" y="116" width="244" height="54" rx="16" fill="#0F172A"/>
<rect x="300" y="188" width="244" height="110" rx="20" fill="#ECFDF5"/>
<rect x="122" y="144" width="128" height="12" rx="6" fill="#0F172A"/>
<rect x="122" y="170" width="94" height="10" rx="5" fill="#334155"/>
<rect x="122" y="208" width="126" height="18" rx="9" fill="#14B8A6"/>
<rect x="122" y="238" width="112" height="18" rx="9" fill="#2DD4BF"/>
<rect x="122" y="268" width="88" height="18" rx="9" fill="#5EEAD4"/>
<rect x="326" y="132" width="102" height="12" rx="6" fill="#F8FAFC"/>
<rect x="326" y="212" width="78" height="12" rx="6" fill="#0F172A"/>
<rect x="326" y="238" width="154" height="10" rx="5" fill="#475569"/>
<path d="M326 280L372 244L410 260L448 214L488 236L524 184" stroke="#0F766E" stroke-width="10" stroke-linecap="round" stroke-linejoin="round"/>
<circle cx="326" cy="280" r="8" fill="#0F766E"/>
<circle cx="372" cy="244" r="8" fill="#14B8A6"/>
<circle cx="410" cy="260" r="8" fill="#2DD4BF"/>
<circle cx="448" cy="214" r="8" fill="#5EEAD4"/>
<circle cx="488" cy="236" r="8" fill="#99F6E4"/>
<circle cx="524" cy="184" r="8" fill="#CCFBF1"/>
<text x="70" y="378" fill="#D1FAE5" font-family="Arial, sans-serif" font-size="28" font-weight="700">Operations Suite</text>
<defs>
<linearGradient id="paint0_linear" x1="44" y1="52" x2="592" y2="368" gradientUnits="userSpaceOnUse">
<stop stop-color="#064E3B"/>
<stop offset="1" stop-color="#115E59"/>
</linearGradient>
</defs>
</svg>
