<svg width="640" height="420" viewBox="0 0 640 420" fill="none" xmlns="http://www.w3.org/2000/svg">
<rect width="640" height="420" rx="32" fill="#06111F"/>
<rect x="28" y="28" width="584" height="364" rx="24" fill="url(#paint0_linear)"/>
<rect x="74" y="88" width="492" height="246" rx="24" fill="#F8FAFC"/>
<rect x="98" y="112" width="132" height="198" rx="20" fill="#0F172A"/>
<rect x="250" y="112" width="134" height="90" rx="20" fill="#ECFEFF"/>
<rect x="402" y="112" width="140" height="90" rx="20" fill="#EFF6FF"/>
<rect x="250" y="220" width="292" height="90" rx="20" fill="#F1F5F9"/>
<rect x="122" y="136" width="84" height="12" rx="6" fill="#E2E8F0"/>
<rect x="122" y="164" width="64" height="10" rx="5" fill="#94A3B8"/>
<rect x="122" y="206" width="84" height="84" rx="16" fill="#0EA5E9"/>
<rect x="278" y="136" width="76" height="12" rx="6" fill="#0F172A"/>
<rect x="278" y="160" width="92" height="10" rx="5" fill="#475569"/>
<rect x="430" y="136" width="82" height="12" rx="6" fill="#0F172A"/>
<rect x="430" y="160" width="76" height="10" rx="5" fill="#64748B"/>
<path d="M278 278H514" stroke="#CBD5E1" stroke-width="10" stroke-linecap="round"/>
<path d="M278 250H420" stroke="#0F766E" stroke-width="14" stroke-linecap="round"/>
<path d="M278 302H476" stroke="#38BDF8" stroke-width="14" stroke-linecap="round"/>
<text x="70" y="378" fill="#DBEAFE" font-family="Arial, sans-serif" font-size="28" font-weight="700">Platform Command Center</text>
<defs>
<linearGradient id="paint0_linear" x1="50" y1="44" x2="596" y2="374" gradientUnits="userSpaceOnUse">
<stop stop-color="#082F49"/>
<stop offset="1" stop-color="#1E3A8A"/>
</linearGradient>
</defs>
</svg>
