<svg width="640" height="420" viewBox="0 0 640 420" fill="none" xmlns="http://www.w3.org/2000/svg">
<rect width="640" height="420" rx="32" fill="#071D34"/>
<rect x="28" y="28" width="584" height="364" rx="24" fill="url(#paint0_linear)"/>
<rect x="68" y="86" width="212" height="248" rx="20" fill="#0F2D4A" fill-opacity="0.78"/>
<rect x="304" y="86" width="268" height="118" rx="20" fill="#F8FAFC"/>
<rect x="304" y="224" width="128" height="110" rx="20" fill="#0EA5E9" fill-opacity="0.16"/>
<rect x="444" y="224" width="128" height="110" rx="20" fill="#38BDF8" fill-opacity="0.22"/>
<circle cx="116" cy="140" r="28" fill="#38BDF8"/>
<rect x="160" y="120" width="84" height="12" rx="6" fill="#E0F2FE"/>
<rect x="160" y="144" width="62" height="10" rx="5" fill="#7DD3FC"/>
<rect x="96" y="198" width="156" height="14" rx="7" fill="#7DD3FC"/>
<rect x="96" y="224" width="124" height="12" rx="6" fill="#E2E8F0"/>
<rect x="96" y="248" width="138" height="12" rx="6" fill="#E2E8F0"/>
<rect x="96" y="272" width="108" height="12" rx="6" fill="#E2E8F0"/>
<rect x="336" y="120" width="92" height="12" rx="6" fill="#0F172A"/>
<rect x="336" y="146" width="168" height="10" rx="5" fill="#94A3B8"/>
<path d="M338 181C367 148 406 144 434 160C458 174 476 171 500 152C522 135 548 133 572 144" stroke="#0284C7" stroke-width="10" stroke-linecap="round"/>
<circle cx="338" cy="181" r="9" fill="#0284C7"/>
<circle cx="433" cy="160" r="9" fill="#38BDF8"/>
<circle cx="500" cy="152" r="9" fill="#7DD3FC"/>
<circle cx="572" cy="144" r="9" fill="#BAE6FD"/>
<rect x="328" y="248" width="80" height="12" rx="6" fill="#0F172A"/>
<rect x="328" y="276" width="56" height="42" rx="12" fill="#0EA5E9"/>
<rect x="468" y="248" width="74" height="12" rx="6" fill="#0F172A"/>
<rect x="468" y="276" width="80" height="16" rx="8" fill="#0EA5E9"/>
<rect x="468" y="302" width="58" height="10" rx="5" fill="#1E293B" fill-opacity="0.4"/>
<text x="70" y="378" fill="#E0F2FE" font-family="Arial, sans-serif" font-size="28" font-weight="700">Sales &amp; CRM</text>
<defs>
<linearGradient id="paint0_linear" x1="68" y1="58" x2="598" y2="364" gradientUnits="userSpaceOnUse">
<stop stop-color="#082F49"/>
<stop offset="1" stop-color="#0F766E"/>
</linearGradient>
</defs>
</svg>
