<svg xmlns="http://www.w3.org/2000/svg" viewBox="0 0 800 520" fill="none">
  <rect width="800" height="520" fill="#F8FAFC"/>
  <rect x="40" y="40" width="720" height="440" rx="28" fill="#FFFFFF" stroke="#E2E8F0" stroke-width="2"/>
  <rect x="70" y="70" width="660" height="48" rx="14" fill="#F1F5F9"/>
  <circle cx="104" cy="94" r="8" fill="#10B981"/>
  <circle cx="134" cy="94" r="8" fill="#F59E0B"/>
  <circle cx="164" cy="94" r="8" fill="#EF4444"/>
  <rect x="90" y="140" width="220" height="130" rx="16" fill="#F8FAFC" stroke="#E2E8F0"/>
  <rect x="320" y="140" width="180" height="130" rx="16" fill="#F8FAFC" stroke="#E2E8F0"/>
  <rect x="510" y="140" width="190" height="130" rx="16" fill="#F8FAFC" stroke="#E2E8F0"/>
  <rect x="90" y="290" width="610" height="150" rx="18" fill="#F8FAFC" stroke="#E2E8F0"/>
  <rect x="110" y="316" width="150" height="14" rx="7" fill="#CBD5F5"/>
  <rect x="110" y="344" width="230" height="12" rx="6" fill="#E2E8F0"/>
  <rect x="110" y="368" width="180" height="12" rx="6" fill="#E2E8F0"/>
  <rect x="110" y="392" width="210" height="12" rx="6" fill="#E2E8F0"/>
  <path d="M360 408 L420 360 L470 384 L520 338 L580 368 L640 318" stroke="#10B981" stroke-width="4" fill="none"/>
  <circle cx="360" cy="408" r="5" fill="#10B981"/>
  <circle cx="420" cy="360" r="5" fill="#10B981"/>
  <circle cx="470" cy="384" r="5" fill="#10B981"/>
  <circle cx="520" cy="338" r="5" fill="#10B981"/>
  <circle cx="580" cy="368" r="5" fill="#10B981"/>
  <circle cx="640" cy="318" r="5" fill="#10B981"/>
  <rect x="110" y="178" width="120" height="10" rx="5" fill="#CBD5F5"/>
  <rect x="110" y="200" width="80" height="10" rx="5" fill="#E2E8F0"/>
  <rect x="340" y="178" width="110" height="10" rx="5" fill="#CBD5F5"/>
  <rect x="340" y="200" width="90" height="10" rx="5" fill="#E2E8F0"/>
  <rect x="530" y="178" width="120" height="10" rx="5" fill="#CBD5F5"/>
  <rect x="530" y="200" width="90" height="10" rx="5" fill="#E2E8F0"/>
</svg>
