<svg xmlns="http://www.w3.org/2000/svg" viewBox="0 0 520 520" fill="none">
  <rect width="520" height="520" fill="#F8FAFC"/>
  <rect x="130" y="40" width="260" height="440" rx="36" fill="#0F172A"/>
  <rect x="150" y="70" width="220" height="380" rx="24" fill="#FFFFFF"/>
  <rect x="220" y="54" width="80" height="6" rx="3" fill="#1E293B"/>
  <circle cx="260" cy="456" r="16" fill="#1E293B"/>
  <rect x="170" y="100" width="180" height="50" rx="14" fill="#ECFDF3" stroke="#86EFAC"/>
  <rect x="170" y="170" width="180" height="50" rx="14" fill="#F1F5F9" stroke="#E2E8F0"/>
  <rect x="170" y="240" width="180" height="50" rx="14" fill="#F1F5F9" stroke="#E2E8F0"/>
  <rect x="170" y="310" width="180" height="50" rx="14" fill="#F1F5F9" stroke="#E2E8F0"/>
  <circle cx="192" cy="126" r="8" fill="#10B981"/>
  <circle cx="192" cy="196" r="8" fill="#94A3B8"/>
  <circle cx="192" cy="266" r="8" fill="#94A3B8"/>
  <circle cx="192" cy="336" r="8" fill="#94A3B8"/>
  <rect x="210" y="122" width="110" height="10" rx="5" fill="#E2E8F0"/>
  <rect x="210" y="192" width="110" height="10" rx="5" fill="#E2E8F0"/>
  <rect x="210" y="262" width="110" height="10" rx="5" fill="#E2E8F0"/>
  <rect x="210" y="332" width="110" height="10" rx="5" fill="#E2E8F0"/>
</svg>
