<svg xmlns="http://www.w3.org/2000/svg" viewBox="0 0 760 420" fill="none">
  <rect width="760" height="420" fill="#FFFFFF"/>
  <rect x="20" y="20" width="720" height="380" rx="24" fill="#F8FAFC" stroke="#E2E8F0" stroke-width="2"/>
  <rect x="50" y="60" width="190" height="300" rx="18" fill="#FFFFFF" stroke="#E2E8F0"/>
  <rect x="285" y="60" width="190" height="300" rx="18" fill="#FFFFFF" stroke="#E2E8F0"/>
  <rect x="520" y="60" width="190" height="300" rx="18" fill="#FFFFFF" stroke="#E2E8F0"/>
  <rect x="70" y="90" width="120" height="10" rx="5" fill="#CBD5F5"/>
  <rect x="305" y="90" width="120" height="10" rx="5" fill="#CBD5F5"/>
  <rect x="540" y="90" width="120" height="10" rx="5" fill="#CBD5F5"/>
  <rect x="70" y="120" width="150" height="54" rx="12" fill="#F1F5F9" stroke="#E2E8F0"/>
  <rect x="70" y="190" width="150" height="54" rx="12" fill="#F1F5F9" stroke="#E2E8F0"/>
  <rect x="70" y="260" width="150" height="54" rx="12" fill="#F1F5F9" stroke="#E2E8F0"/>
  <rect x="305" y="120" width="150" height="54" rx="12" fill="#ECFDF3" stroke="#86EFAC"/>
  <rect x="305" y="190" width="150" height="54" rx="12" fill="#F1F5F9" stroke="#E2E8F0"/>
  <rect x="305" y="260" width="150" height="54" rx="12" fill="#F1F5F9" stroke="#E2E8F0"/>
  <rect x="540" y="120" width="150" height="54" rx="12" fill="#F1F5F9" stroke="#E2E8F0"/>
  <rect x="540" y="190" width="150" height="54" rx="12" fill="#F1F5F9" stroke="#E2E8F0"/>
  <rect x="540" y="260" width="150" height="54" rx="12" fill="#FEF9C3" stroke="#FDE68A"/>
  <circle cx="86" cy="146" r="6" fill="#10B981"/>
  <circle cx="321" cy="146" r="6" fill="#10B981"/>
  <circle cx="556" cy="146" r="6" fill="#10B981"/>
  <rect x="96" y="142" width="86" height="8" rx="4" fill="#E2E8F0"/>
  <rect x="331" y="142" width="86" height="8" rx="4" fill="#E2E8F0"/>
  <rect x="566" y="142" width="86" height="8" rx="4" fill="#E2E8F0"/>
</svg>
